<?xml version="1.0" encoding="utf-8"?>
<!-- Svg Vector Icons : http://www.sfont.cn -->
<!DOCTYPE svg PUBLIC "-//W3C//DTD SVG 1.1//EN" "http://www.w3.org/Graphics/SVG/1.1/DTD/svg11.dtd">
<svg version="1.1" xmlns="http://www.w3.org/2000/svg" xmlns:xlink="http://www.w3.org/1999/xlink" x="0px" y="0px" viewBox="0 0 1000 1000" enable-background="new 0 0 1000 1000" xml:space="preserve">
<metadata> Svg Vector Icons : http://www.sfont.cn </metadata>
<g><path d="M829.9,437.1l-542.8-1c-0.2-73.2-19.9-186.8,42.5-255.6c38-42,102.1-85.3,170.5-85.3c100.9,0,176.4,76.2,212.9,170.4c10.7,27.2,20.1,41.9,42.7,42.6c56.7,1.8,53.2-58,42.5-85.2C745.4,86.9,646.4,10,500,10c-99.5,0-154.3,20.4-213,85.2c-89.9,99-85.5,259.1-85.2,340.8l-31.7,1c-29.6,0-53.6,23.7-53.6,52.8V937c0,29.3,24,53,53.6,53h659.7c29.5,0,53.5-23.7,53.5-53V489.8C883.4,460.7,859.5,437.1,829.9,437.1z M798.3,862.1c0,11.7-4,21.8-12.5,30.1c-8.3,8.4-18.5,12.5-30.1,12.5H244.5c-11.8,0-21.8-4-30.1-12.5c-8.3-8.3-12.5-18.3-12.5-30.1V563.9c0-23.4,19.1-42.5,42.6-42.5h511.2c23.4,0,42.5,19.1,42.5,42.5V862.1z"/></g>
</svg>