<?xml version="1.0" encoding="utf-8"?>
<!-- Svg Vector Icons : http://www.sfont.cn -->
<!DOCTYPE svg PUBLIC "-//W3C//DTD SVG 1.1//EN" "http://www.w3.org/Graphics/SVG/1.1/DTD/svg11.dtd">
<svg version="1.1" xmlns="http://www.w3.org/2000/svg" xmlns:xlink="http://www.w3.org/1999/xlink" x="0px" y="0px" viewBox="0 0 1000 1000" enable-background="new 0 0 1000 1000" xml:space="preserve">
<metadata> Svg Vector Icons : http://www.sfont.cn </metadata>
<g><g transform="translate(0.000000,384.000000) scale(0.100000,-0.100000)"><path d="M2540.6,1519.8C1199.1,788.5,100,184.6,100,178.3c0-6.3,1101.2-610.2,2444.8-1343.6l2444.8-1331l1972.5,1076.1c1084.5,591.3,1987.2,1082.4,2006,1088.7c31.3,12.5,33.4-121.2,33.4-1525.4v-1537.9l445.1,4.2l443,6.3l6.3,1780.3l4.2,1778.2L7444.8,1513.6C6094.9,2251.2,4987.5,2853,4985.4,2850.9C4981.2,2850.9,3882.1,2251.2,2540.6,1519.8z"/><path d="M1880.3-2510.9l6.3-975.8l1552.5-842.1l1550.4-842.1l1552.5,842.1l1550.4,842.1l6.3,975.8c2.1,537,0,975.8-8.3,975.8c-6.3,0-702.1-413.7-1544.2-919.4c-842.1-505.7-1544.2-919.4-1556.7-919.4s-714.6,413.7-1556.7,919.4c-842.1,505.7-1537.9,919.4-1544.2,919.4C1880.3-1535.1,1878.2-1973.9,1880.3-2510.9z"/></g></g>
</svg>