<?xml version="1.0" encoding="utf-8"?>
<!-- Svg Vector Icons : http://www.sfont.cn -->
<!DOCTYPE svg PUBLIC "-//W3C//DTD SVG 1.1//EN" "http://www.w3.org/Graphics/SVG/1.1/DTD/svg11.dtd">
<svg version="1.1" xmlns="http://www.w3.org/2000/svg" xmlns:xlink="http://www.w3.org/1999/xlink" x="0px" y="0px" viewBox="0 0 1000 1000" enable-background="new 0 0 1000 1000" xml:space="preserve">
<metadata> Svg Vector Icons : http://www.sfont.cn </metadata>
<g><g><path d="M788.2,298.2c0-79.6-32.3-151.7-84.4-203.8C651.7,42.3,579.6,10,500,10c-79.6,0-151.7,32.3-203.8,84.5c-52.1,52.1-84.4,124.2-84.4,203.8c0,79.6,32.3,151.7,84.4,203.8c52.2,52.2,124.2,84.5,203.8,84.5c79.6,0,151.7-32.3,203.8-84.5C756,449.9,788.2,377.8,788.2,298.2z"/><path d="M154.1,874.7C154.1,932.4,283.8,990,500,990c202.8,0,345.9-57.6,345.9-115.3c0-115.3-135.7-230.6-345.9-230.6C283.8,644.1,154.1,759.4,154.1,874.7z"/></g></g>
</svg>